<svg xmlns="http://www.w3.org/2000/svg" viewBox="0 0 512 512"><defs><style>.a{fill:#ccc6c1;}.b{fill:#1a1a1a;}.c{fill:#f65e57;}.d{fill:#f9bc2e;}.e{fill:#43c748;}</style></defs><rect class="a" width="512" height="512" rx="48"/><rect class="b" x="48" y="48" width="416" height="416" rx="48"/><rect class="a" x="59.14286" y="118.02116" width="393.71429" height="335.38624" rx="48"/><circle class="c" cx="414.69974" cy="81.42857" r="14.85714"/><circle class="d" cx="377.55688" cy="81.42857" r="14.85714"/><circle class="e" cx="341.34259" cy="81.42857" r="14.85714"/><path class="b" d="M116.8833,236.83887q-15.92724,0-23.70117-11.5708-7.77759-11.5708-7.77637-33.34375,0-21.77124,7.77637-33.34375,7.77393-11.5708,23.70117-11.5708A29.69784,29.69784,0,0,1,127.21,148.62744a23.66364,23.66364,0,0,1,7.46484,4.35449,27.403,27.403,0,0,1,5.22559,6.15869,66.52555,66.52555,0,0,1,3.73242,6.90528l-8.958,4.10547a38.44116,38.44116,0,0,0-2.61279-5.41211,19.93769,19.93769,0,0,0-3.5459-4.479,15.3252,15.3252,0,0,0-4.852-3.04834,18.28374,18.28374,0,0,0-6.78076-1.11962q-10.32861,0-15.36523,7.83837Q96.479,171.769,96.479,184.83252v14.18359q0,13.06348,5.03907,20.90186,5.03832,7.83837,15.36523,7.83838a18.28373,18.28373,0,0,0,6.78076-1.11963,15.28188,15.28188,0,0,0,4.852-3.04834,19.83986,19.83986,0,0,0,3.5459-4.479,38.209,38.209,0,0,0,2.61279-5.41211l8.958,4.106a56.4156,56.4156,0,0,1-3.73242,6.96729,27.96629,27.96629,0,0,1-5.22559,6.09619,23.581,23.581,0,0,1-7.46484,4.35449A29.69783,29.69783,0,0,1,116.8833,236.83887Z" transform="translate(0 0)"/><path class="b" d="M188.42139,236.83887a28.74655,28.74655,0,0,1-13.68555-3.04834,25.48507,25.48507,0,0,1-9.45557-8.77149A40.7968,40.7968,0,0,1,159.80566,210.96a93.54178,93.54178,0,0,1-1.7417-19.03564,93.80712,93.80712,0,0,1,1.7417-18.97364,40.83679,40.83679,0,0,1,5.47461-14.12109,25.52109,25.52109,0,0,1,9.45557-8.77148,32.24595,32.24595,0,0,1,27.37158,0,25.53588,25.53588,0,0,1,9.45557,8.77148,40.87542,40.87542,0,0,1,5.47461,14.12109,93.94849,93.94849,0,0,1,1.7417,18.97364A93.6815,93.6815,0,0,1,217.0376,210.96,40.83563,40.83563,0,0,1,211.563,225.019a25.4998,25.4998,0,0,1-9.45557,8.77149A28.75944,28.75944,0,0,1,188.42139,236.83887Zm0-9.08252a17.62461,17.62461,0,0,0,8.834-2.05274,16.94913,16.94913,0,0,0,5.97168-5.78564,26.425,26.425,0,0,0,3.42139-9.02,60.89945,60.89945,0,0,0,1.05761-11.88184V184.83252a61.17654,61.17654,0,0,0-1.05761-11.81934,26.46605,26.46605,0,0,0-3.42139-9.08252,16.94347,16.94347,0,0,0-5.97168-5.78515,20.02968,20.02968,0,0,0-17.66748,0,16.91138,16.91138,0,0,0-5.97168,5.78515,26.387,26.387,0,0,0-3.42139,9.08252,61.02293,61.02293,0,0,0-1.05761,11.81934v14.18359a60.74873,60.74873,0,0,0,1.05761,11.88184,26.34526,26.34526,0,0,0,3.42139,9.02,16.917,16.917,0,0,0,5.97168,5.78564A17.61888,17.61888,0,0,0,188.42139,227.75635Z" transform="translate(0 0)"/><path class="b" d="M282.10547,191.7998V164.30371h-.99414l-18.28906,44.66553-18.29-44.66553h-.99512v71.042H233.957V148.50293h13.437l15.30323,38.32031h.74609l15.30273-38.32031h12.93946V235.3457h-9.58008Z" transform="translate(0 0)"/><path class="b" d="M307.48633,235.3457,331.374,202.74854,308.1084,171.147h11.94336l9.70508,13.561,7.71386,10.70019h.49707l7.46485-10.70019,9.58008-13.561H366.459l-23.51464,31.477,24.13671,32.72168H355.1377l-10.82422-15.0542-7.34082-10.20214h-.49805l-7.0918,10.20214-10.45019,15.0542Z" transform="translate(0 0)"/><path class="b" d="M411.62207,187.19629q-5.10351,0-7.1543-2.11475a7.368,7.368,0,0,1-2.05273-5.35009v-2.23926a7.37355,7.37355,0,0,1,2.05273-5.3501q2.05371-2.11377,7.1543-2.11523,5.09911,0,7.15332,2.11523a7.37027,7.37027,0,0,1,2.05371,5.3501v2.23926a7.36472,7.36472,0,0,1-2.05371,5.35009Q416.72315,187.19825,411.62207,187.19629Zm0,49.269q-5.10351,0-7.1543-2.11474a7.368,7.368,0,0,1-2.05273-5.3501v-2.23975a7.3724,7.3724,0,0,1,2.05273-5.34961q2.05371-2.11451,7.1543-2.11523,5.09911,0,7.15332,2.11523a7.36913,7.36913,0,0,1,2.05371,5.34961v2.23975a7.36476,7.36476,0,0,1-2.05371,5.3501Q416.72315,236.46436,411.62207,236.46533Z" transform="translate(0 0)"/></svg>