<svg xmlns="http://www.w3.org/2000/svg" viewBox="0 0 512 512"><defs><style>.a{fill:#ccc6c1;}.b{fill:#1a1a1a;}.c{fill:#f65e57;}.d{fill:#f9bc2e;}.e{fill:#43c748;}.f{fill:#09a1a8;}.g{fill:#0643d1;}.h{fill:#bc38b7;}.i{fill:#d19406;}</style></defs><rect class="a" width="512" height="512" rx="48"/><rect class="b" x="48" y="48" width="416" height="416" rx="48"/><rect class="a" x="59.14286" y="118.02116" width="393.71429" height="335.38624" rx="48"/><circle class="c" cx="414.69974" cy="81.42857" r="14.85714"/><circle class="d" cx="377.55688" cy="81.42857" r="14.85714"/><circle class="e" cx="341.34259" cy="81.42857" r="14.85714"/><path class="f" d="M58.77069,290.04883c8.53412-8.97586,17.054-17.95166,25.9033-26.60642,8.83027-8.67253,17.92565-17.07373,27.39446-25.09607a223.48749,223.48749,0,0,1,30.33089-21.92294,103.2679,103.2679,0,0,1,17.31114-8.11536,64.306,64.306,0,0,1,19.39085-3.78691c.84706-.01162,1.69539-.07653,2.54728-.03926l2.563.14038,1.2862.0755c.428.03835.85321.11472,1.28082.1713l2.569.37706a23.63392,23.63392,0,0,1,2.54192.56865c.84334.216,1.69392.41676,2.53465.65439l2.48812.84115c.82588.29445,1.62693.65541,2.44285.98545a50.55219,50.55219,0,0,1,16.95,12.15635,77.88984,77.88984,0,0,1,11.62283,16.531c.76458,1.46059,1.51445,2.93547,2.1763,4.43094.71175,1.4823,1.31021,2.99335,1.92766,4.50244,1.18886,3.02218,2.22489,6.08175,3.16477,9.14563,3.68031,12.27213,6.58116,24.46167,9.23336,36.58719,2.68706,12.107,5.20835,24.14237,8.52382,35.79831a152.322,152.322,0,0,0,5.81136,17.01435,68.40341,68.40341,0,0,0,8.43219,15.19934,33.38129,33.38129,0,0,0,12.61908,10.5104,31.47271,31.47271,0,0,0,16.3063,2.42176,18.96742,18.96742,0,0,0,2.13309-.27158c.71054-.12064,1.42541-.20627,2.13538-.3526,1.41165-.3551,2.84756-.58493,4.24676-1.05316l2.1131-.62921c.70349-.21677,1.39236-.498,2.0903-.74341l2.08768-.76825,2.05642-.8822a112.56865,112.56865,0,0,0,15.88858-8.63217l3.80936-2.51978,3.729-2.658c1.25457-.87088,2.4645-1.808,3.67828-2.74063,1.21167-.93555,2.43716-1.85288,3.62576-2.82077,2.35712-1.96118,4.77-3.85672,7.06272-5.904l3.47811-3.02469,3.40775-3.11014c18.11441-16.68338,34.66574-35.13953,50.3082-54.27329,1.98459-2.37014,3.89148-4.8034,5.83432-7.20809,1.92538-2.41846,3.89874-4.80024,5.76031-7.26911l5.65528-7.35205,5.57794-7.41151c7.45608-9.86931,14.5939-19.97565,21.64908-30.13422l.81869.57423-10.84457,15.06832c-3.6687,4.98366-7.2519,10.0291-10.94556,14.99486l-5.52148,7.46249-5.6,7.40463c-3.74332,4.92862-7.48462,9.8617-11.30008,14.73779-7.57919,9.79566-15.51431,19.31077-23.54742,28.75528-8.07621,9.4076-16.44941,18.58353-25.315,27.31434A238.94555,238.94555,0,0,1,331.741,363.49982a118.02206,118.02206,0,0,1-16.28241,9.78924l-2.16547,1.04218-2.22748.93561c-.74829.30145-1.48123.63549-2.24408.90933l-2.3013.79925c-1.517.57666-3.13165.92621-4.70254,1.38614-.79642.20062-1.61408.34162-2.42172.51367a23.72151,23.72151,0,0,1-2.45154.42215,38.86063,38.86063,0,0,1-20.09143-2.1315,41.38315,41.38315,0,0,1-16.24271-12.21A77.044,77.044,0,0,1,250.268,348.25739a161.78851,161.78851,0,0,1-7.01729-17.79245c-4.01209-11.98786-7.12033-24.07062-10.35019-35.98594-1.60874-5.95837-3.23262-11.87939-4.97589-17.71749-1.71808-5.84681-3.63889-11.587-5.82642-17.14814-2.199-5.55453-4.50766-10.96136-6.961-16.17418-1.258-2.5852-2.541-5.13221-3.96834-7.56268a64.52548,64.52548,0,0,0-4.6916-6.87668,41.17414,41.17414,0,0,0-12.05055-10.59c-.592-.30878-1.16957-.65532-1.77581-.94326l-1.83544-.84242c-1.26761-.45167-2.52591-.96887-3.83054-1.36058l-1.97913-.54073c-.33191-.0868-.65989-.19444-.99658-.26612l-1.01961-.1798-2.04863-.37022c-.68629-.11862-1.38974-.14017-2.087-.21787a56.22053,56.22053,0,0,0-17.22586,1.277,92.10924,92.10924,0,0,0-17.08328,5.69993,164.8436,164.8436,0,0,0-31.60948,18.77674,278.62682,278.62682,0,0,0-28.07385,24.1918Q71.5637,276.5728,59.51482,290.71686Z" transform="translate(0 0)"/><path class="g" d="M58.97437,317.82785A134.83089,134.83089,0,0,0,90.378,302.01205a136.92658,136.92658,0,0,0,26.15444-23.33389,168.18739,168.18739,0,0,0,20.03867-28.672c5.76032-10.17815,10.61069-20.83734,15.60274-31.58153,5.072-10.70785,10.09492-21.67491,17.72609-31.9453A61.83513,61.83513,0,0,1,184.026,172.48189a47.09984,47.09984,0,0,1,9.30366-4.963,45.70391,45.70391,0,0,1,10.26563-2.6595,48.28736,48.28736,0,0,1,5.24678-.3977l2.62446-.02559c.86962.034,1.73439.10832,2.60027.17776a54.5949,54.5949,0,0,1,10.08659,1.851,71.19288,71.19288,0,0,1,17.74915,8.17938c10.76356,6.79784,19.655,15.29245,27.92148,24.05126,4.11654,4.40414,8.05545,8.91929,11.9454,13.4449l2.88345,3.41973,2.83664,3.449q2.849,3.43221,5.64337,6.89837,11.23362,13.813,21.97181,27.89415l10.728,14.09182q5.34549,7.10481,10.49726,14.34574,10.25875,14.51184,19.49929,29.68487c6.16455,10.09952,12.02,20.37366,17.72434,30.7002,2.86633,5.155,5.70975,10.316,8.67316,15.392a138.01073,138.01073,0,0,0,9.60415,14.69781c3.54718,4.59448,7.68308,8.85477,12.82382,11.4964a27.10639,27.10639,0,0,0,8.13669,2.7843,31.90186,31.90186,0,0,0,8.637.42307,45.27378,45.27378,0,0,0,16.58874-5.107,84.63606,84.63606,0,0,0,14.52264-9.85461l.63917.76907a88.02826,88.02826,0,0,1-14.68085,10.00836,46.39993,46.39993,0,0,1-16.95889,5.41553,33.1877,33.1877,0,0,1-8.98111-.34076,28.49253,28.49253,0,0,1-8.56006-2.82529c-5.42044-2.74054-9.78119-7.08819-13.52695-11.69174A139.78319,139.78319,0,0,1,380.39865,359.113c-3.09753-5.04242-6.06149-10.14841-9.042-15.2363-5.94916-10.18131-11.95068-20.30731-18.3768-30.15762q-9.61185-14.78994-20.25626-28.84076c-3.529-4.69278-7.18054-9.29126-10.8851-13.84336l-11.225-13.65771c-7.52587-9.06212-15.039-18.11836-22.9082-26.81516-3.94391-4.33755-7.96487-8.59893-12.13324-12.685q-6.1972-6.18061-12.78-11.85834c-4.36731-3.789-8.8968-7.33592-13.52581-10.61a116.99934,116.99934,0,0,0-14.23336-8.72472,65.50082,65.50082,0,0,0-14.73222-5.5926,39.911,39.911,0,0,0-14.51175-.73633,30.59146,30.59146,0,0,0-6.82283,1.74992,32.38947,32.38947,0,0,0-6.34059,3.215,55.023,55.023,0,0,0-11.4492,10.25443A148.291,148.291,0,0,0,170.98222,208.91c-3.28558,4.712-6.47137,9.62272-9.6732,14.56987-12.80113,19.81647-25.899,40.1961-42.59873,57.21817A158.74619,158.74619,0,0,1,59.312,318.7691Z" transform="translate(0 0)"/><path class="h" d="M59.36043,196.62108c5.38337,2.85431,9.81282,7.0367,13.81167,11.46593,3.99521,4.45643,7.64861,9.18742,11.21066,13.97241,3.56246,4.78625,7.00857,9.651,10.50648,14.47192,3.47442,4.83725,6.96784,9.65405,10.58705,14.36307,3.60586,4.71567,7.26773,9.38559,11.21911,13.77811.95254,1.12927,2.01591,2.15731,3.01625,3.2388q1.50667,1.61883,3.09488,3.14636c2.09649,2.06253,4.29637,3.99753,6.49248,5.9078a99.16886,99.16886,0,0,0,13.953,10.00779,67.2988,67.2988,0,0,0,14.98749,6.71225,44.5924,44.5924,0,0,0,15.80147,1.77987,40.42532,40.42532,0,0,0,7.81515-1.3461,47.77551,47.77551,0,0,0,7.50457-2.86245c9.77212-4.79343,18.21779-12.95685,25.50819-21.98417,1.83362-2.26083,3.60944-4.59106,5.32436-6.96914q2.54521-3.59093,4.98855-7.27855c3.2742-4.90541,6.3145-9.99234,9.33292-15.10532,6.00412-10.25523,11.71748-20.74356,17.89627-31.13,3.08362-5.20133,6.34869-10.33445,9.89664-15.37a118.50827,118.50827,0,0,1,11.88223-14.48951,72.17288,72.17288,0,0,1,15.29449-12.1154,53.383,53.383,0,0,1,19.13242-6.77009,54.62284,54.62284,0,0,1,20.44086.79756,63.31266,63.31266,0,0,1,18.37317,7.48376,98.06748,98.06748,0,0,1,15.29385,11.40181,171.76526,171.76526,0,0,1,12.90649,13.33235c7.9979,9.278,15.334,18.86971,22.33851,28.64182,6.94854,9.81164,13.44729,19.87736,19.68518,30.07561,12.53265,20.3605,24.0856,41.22012,35.63555,62.05966l-.86618.49972c-12.27166-20.40951-24.98324-40.57382-38.61282-60.03173-6.85565-9.69745-13.94076-19.21424-21.392-28.3783a210.81032,210.81032,0,0,0-24.12887-25.57817c-4.38147-3.81574-8.92026-7.37076-13.5488-10.65572a120.77532,120.77532,0,0,0-14.3082-8.51909c-9.692-4.90692-19.81579-7.5879-29.832-6.41848-10.0292.99995-19.64728,5.88755-28.16757,13.04669-8.55078,7.14044-16.08026,16.138-22.98132,25.6248-6.91121,9.51926-13.15972,19.64249-19.4092,29.80981-6.26222,10.17-12.43945,20.46573-19.59448,30.3194a123.48862,123.48862,0,0,1-11.83952,14.14554,73.17735,73.17735,0,0,1-7.02127,6.30612,55.82126,55.82126,0,0,1-8.00679,5.34183,50.71938,50.71938,0,0,1-8.99848,3.90414,50.08448,50.08448,0,0,1-9.70932,1.95,49.4585,49.4585,0,0,1-19.4864-2.12226,56.41769,56.41769,0,0,1-16.99512-8.876,89.55563,89.55563,0,0,1-13.51113-12.758,340.318,340.318,0,0,1-21.68816-28.90871c-3.35055-4.94859-6.61726-9.93824-9.89521-14.91116-3.26112-4.9847-6.55659-9.93909-9.958-14.8147a156.23959,156.23959,0,0,0-10.876-14.09272c-1.01652-1.07531-1.99829-2.18743-3.04316-3.23314l-1.59394-1.54064-.79789-.76935-.84487-.71327-1.68943-1.42729c-.57851-.45419-1.19179-.86009-1.79228-1.28329a33.23777,33.23777,0,0,0-3.77649-2.23168Z" transform="translate(0 0)"/><path class="i" d="M59.43351,371.83817a47.32392,47.32392,0,0,0,17.30487,7.77975,40.76984,40.76984,0,0,0,9.41477.91327,29.0535,29.0535,0,0,0,9.14259-1.74344c5.88248-2.1387,11.05224-5.92926,15.68216-10.20319a93.95043,93.95043,0,0,0,6.56229-6.87982c2.05342-2.42938,4.04955-4.90924,5.944-7.47793a330.60212,330.60212,0,0,0,20.57387-32.478c6.40625-11.17084,12.29561-22.68823,18.6134-34.06595,6.31851-11.36948,13.072-22.65207,21.2854-33.13415a134.57027,134.57027,0,0,1,13.53569-14.91893,86.479,86.479,0,0,1,16.49959-12.41851,57.05728,57.05728,0,0,1,19.98836-7.08021,51.82548,51.82548,0,0,1,10.71432-.43244,50.22807,50.22807,0,0,1,10.49768,1.884,62.643,62.643,0,0,1,18.44822,9.26945A108.83557,108.83557,0,0,1,288.6409,244.0786c2.26553,2.39827,4.47,4.83894,6.57367,7.3511,2.12228,2.49582,4.20068,5.01726,6.20151,7.59221,4.00943,5.14408,7.81219,10.41577,11.55133,15.71265,7.47732,10.5957,14.54742,21.42154,22.09982,31.881,7.55441,10.43381,15.39548,20.71079,24.05869,29.91931,2.18246,2.27732,4.36807,4.5268,6.6499,6.62674a87.02446,87.02446,0,0,0,7.05975,5.82416c4.82565,3.52945,10.04071,6.22794,15.22229,6.796a14.06,14.06,0,0,0,1.93637.13013l.96622.01239c.32156-.0091.6412-.05573.96188-.07849a17.7674,17.7674,0,0,0,3.7919-.66779,22.74332,22.74332,0,0,0,7.08475-3.51862,39.00115,39.00115,0,0,0,6.30847-5.845c.98572-1.11151,1.92078-2.295,2.82892-3.51486.91422-1.218,1.8122-2.46506,2.655-3.7655a122.28806,122.28806,0,0,0,8.97925-16.65341c1.29016-2.92206,2.501-5.89045,3.66177-8.88477,1.13626-3.00272,2.198-6.03842,3.20587-9.09454,8.03659-24.48426,13.51261-49.82477,21.95121-74.29383l.93914.34348c-4.51715,12.07019-7.801,24.5784-10.88891,37.10361-1.5672,6.26077-3.01221,12.55478-4.55237,18.83-1.50739,6.28385-3.0412,12.568-4.72809,18.82465-1.68951,6.25516-3.33917,12.5423-5.30395,18.78363a125.63237,125.63237,0,0,1-7.05844,18.56088A59.90015,59.90015,0,0,1,415.611,350.913a39.559,39.559,0,0,1-7.238,7.925,29.0568,29.0568,0,0,1-9.95951,5.42932,27.79763,27.79763,0,0,1-11.50375.95707,32.71005,32.71005,0,0,1-10.6803-3.35938A48.88248,48.88248,0,0,1,367.4,355.99084a94.76847,94.76847,0,0,1-13.88528-14.6361c-4.07074-5.21137-7.79862-10.5871-11.37814-16.0242-3.61844-5.41056-7.047-10.91031-10.56156-16.33936-6.96976-10.89053-14.1593-21.60147-21.83285-31.91983q-5.73583-7.75012-12.0149-15.01913c-2.08786-2.42072-4.21487-4.79956-6.4187-7.09516-2.20681-2.29422-4.492-4.49568-6.8146-6.63835a93.3031,93.3031,0,0,0-14.91208-11.28441,54.53926,54.53926,0,0,0-16.6057-6.78139,45.3458,45.3458,0,0,0-8.63065-.88864,41.875,41.875,0,0,0-8.565.94283l-2.09735.4965-2.06583.631c-.69367.18354-1.36639.45748-2.04373.70629-.675.25788-1.35955.477-2.01735.79338l-1.99.878-1.94789.99906c-.65755.30928-1.2869.69626-1.92429,1.05922-.633.37433-1.28192.70777-1.89564,1.12748a79.22014,79.22014,0,0,0-7.25911,5.20237q-3.4895,2.8709-6.777,6.06905a170.18661,170.18661,0,0,0-12.42709,13.78632c-7.88863,9.71835-15.36925,20.04153-22.68964,30.58679-7.32,10.551-14.44508,21.3406-21.47193,32.22305-7.068,10.85178-14.2342,21.72784-22.53366,31.83426-2.06764,2.529-4.24624,4.97714-6.48382,7.37024-2.27331,2.36487-4.625,4.66238-7.11152,6.82324-5.00524,4.2522-10.6183,8.04221-17.01338,10.07538A31.16123,31.16123,0,0,1,86.162,382.4343a42.58666,42.58666,0,0,1-9.78381-1.25592,48.62584,48.62584,0,0,1-17.53436-8.53263Z" transform="translate(0 0)"/></svg>